<svg width="92" height="28" viewBox="0 0 92 28" fill="none" xmlns="http://www.w3.org/2000/svg">
<path d="M7.37709 22.9333C7.37709 22.4047 6.92627 22.0451 6.02464 21.8546C5.48259 21.7392 5.10557 21.5916 4.89358 21.4118C4.68159 21.2294 4.57559 20.9798 4.57559 20.6632C4.57559 20.3438 4.70977 20.0809 4.97811 19.8742C5.24913 19.6676 5.60066 19.5643 6.03269 19.5643C6.50229 19.5643 6.87931 19.677 7.16376 19.9024C7.4482 20.1251 7.59042 20.427 7.59042 20.8081H7.36904C7.36904 20.5156 7.2456 20.2714 6.99873 20.0755C6.75185 19.8796 6.42984 19.7817 6.03269 19.7817C5.65165 19.7817 5.34976 19.8648 5.12704 20.0312C4.90431 20.1976 4.79295 20.4056 4.79295 20.6551C4.79295 20.851 4.83454 21.0053 4.91773 21.118C5.00092 21.228 5.13643 21.3287 5.32427 21.4199C5.51211 21.5084 5.78582 21.5943 6.1454 21.6775C6.50498 21.7607 6.78942 21.8586 6.99873 21.9713C7.20803 22.084 7.35965 22.2182 7.45357 22.3738C7.54749 22.5268 7.59445 22.7146 7.59445 22.9374C7.59445 23.2808 7.45357 23.5572 7.17181 23.7665C6.89005 23.9758 6.52108 24.0805 6.06489 24.0805C5.57651 24.0805 5.18205 23.9705 4.8815 23.7504C4.58364 23.5277 4.43471 23.2419 4.43471 22.8931H4.65207C4.67354 23.199 4.80771 23.4378 5.05459 23.6096C5.30414 23.7786 5.64091 23.8631 6.06489 23.8631C6.45399 23.8631 6.76929 23.7733 7.0108 23.5935C7.25499 23.411 7.37709 23.1909 7.37709 22.9333ZM9.57884 22.7401L9.81632 23.678L11.0923 19.6448H11.3137L12.5816 23.678L12.8271 22.7401L13.7127 19.6448H13.9662L12.6983 24H12.481L11.4063 20.7276L11.201 19.9467L10.9796 20.7276L9.92098 24H9.70362L8.43973 19.6448H8.68928L9.57884 22.7401ZM17.8505 24C17.7968 23.8148 17.77 23.5492 17.77 23.203C17.5983 23.4821 17.3635 23.6981 17.0656 23.8511C16.7677 24.004 16.431 24.0805 16.0553 24.0805C15.6528 24.0805 15.3281 23.9718 15.0812 23.7545C14.837 23.5344 14.7149 23.2486 14.7149 22.8971C14.7149 22.4973 14.8947 22.178 15.2543 21.9391C15.6165 21.6976 16.0969 21.5742 16.6953 21.5688H17.77V20.9328C17.77 20.5679 17.6546 20.2848 17.4238 20.0835C17.1957 19.8823 16.8684 19.7817 16.4417 19.7817C16.0445 19.7817 15.7131 19.8836 15.4475 20.0876C15.1818 20.2915 15.049 20.5437 15.049 20.8443L14.8316 20.8362C14.8316 20.482 14.9873 20.1815 15.2986 19.9346C15.6098 19.6877 15.9909 19.5643 16.4417 19.5643C16.9113 19.5643 17.2843 19.6824 17.5607 19.9185C17.8371 20.152 17.9793 20.482 17.9873 20.9087V22.9897C17.9873 23.4673 18.0249 23.792 18.1001 23.9638V24H17.8505ZM16.0553 23.8672C16.4632 23.8672 16.8134 23.7759 17.1058 23.5935C17.401 23.411 17.6224 23.1547 17.77 22.8247V21.7902H16.7637C16.1412 21.7902 15.6648 21.9136 15.3348 22.1605C15.0664 22.3618 14.9323 22.6127 14.9323 22.9132C14.9323 23.1789 15.0383 23.4043 15.2503 23.5894C15.4622 23.7746 15.7306 23.8672 16.0553 23.8672ZM22.7209 21.8627C22.7209 22.5416 22.5747 23.0809 22.2822 23.4808C21.9897 23.8806 21.5912 24.0805 21.0867 24.0805C20.7566 24.0805 20.4628 24.0134 20.2052 23.8792C19.9476 23.7451 19.7463 23.5599 19.6014 23.3238V25.6745H19.3841V19.6448H19.6014V20.4217C19.7517 20.1453 19.9543 19.9333 20.2092 19.7857C20.4641 19.6381 20.754 19.5643 21.0787 19.5643C21.5885 19.5643 21.9897 19.7602 22.2822 20.152C22.5747 20.5411 22.7209 21.0885 22.7209 21.7942V21.8627ZM22.4995 21.7781C22.4995 21.1529 22.3747 20.6645 22.1252 20.313C21.8783 19.9588 21.5308 19.7817 21.0827 19.7817C20.7177 19.7817 20.4078 19.8769 20.1529 20.0674C19.8979 20.2553 19.7141 20.5263 19.6014 20.8805V22.9172C19.7141 23.2178 19.8979 23.4512 20.1529 23.6176C20.4105 23.7813 20.7231 23.8631 21.0907 23.8631C21.5362 23.8631 21.8823 23.686 22.1292 23.3318C22.3761 22.9776 22.4995 22.4597 22.4995 21.7781ZM24.178 24H23.9606V19.6448H24.178V24ZM23.8479 18.2843C23.8479 18.2226 23.8694 18.1703 23.9123 18.1273C23.9553 18.0817 24.0076 18.0589 24.0693 18.0589C24.131 18.0589 24.1834 18.0817 24.2263 18.1273C24.2719 18.1703 24.2947 18.2226 24.2947 18.2843C24.2947 18.346 24.2719 18.3984 24.2263 18.4413C24.1834 18.4842 24.131 18.5057 24.0693 18.5057C24.0076 18.5057 23.9553 18.4842 23.9123 18.4413C23.8694 18.3984 23.8479 18.346 23.8479 18.2843ZM25.5063 23.8028C25.5063 23.741 25.5278 23.6887 25.5707 23.6458C25.6136 23.6002 25.666 23.5774 25.7277 23.5774C25.7894 23.5774 25.8417 23.6002 25.8847 23.6458C25.9303 23.6887 25.9531 23.741 25.9531 23.8028C25.9531 23.8645 25.9303 23.9168 25.8847 23.9597C25.8417 24.0027 25.7894 24.0242 25.7277 24.0242C25.666 24.0242 25.6136 24.0027 25.5707 23.9597C25.5278 23.9168 25.5063 23.8645 25.5063 23.8028ZM27.1767 21.7781C27.1767 21.0831 27.323 20.5411 27.6155 20.152C27.908 19.7602 28.3091 19.5643 28.819 19.5643C29.1464 19.5643 29.4348 19.6381 29.6844 19.7857C29.9366 19.9333 30.1406 20.1533 30.2962 20.4458V17.8174H30.5136V24H30.2962V23.3037C30.1486 23.5505 29.946 23.7424 29.6884 23.8792C29.4308 24.0134 29.1383 24.0805 28.8109 24.0805C28.3065 24.0805 27.908 23.8806 27.6155 23.4808C27.323 23.0809 27.1767 22.5322 27.1767 21.8345V21.7781ZM27.4021 21.8627C27.4021 22.4798 27.5242 22.9682 27.7684 23.3278C28.0126 23.6847 28.3588 23.8631 28.8069 23.8631C29.1665 23.8631 29.4737 23.784 29.7287 23.6257C29.9836 23.4647 30.1728 23.2299 30.2962 22.9213V20.8805C30.0467 20.1479 29.5529 19.7817 28.815 19.7817C28.3695 19.7817 28.022 19.9574 27.7725 20.309C27.5256 20.6605 27.4021 21.1784 27.4021 21.8627ZM33.46 24.0805C33.1084 24.0805 32.7851 23.9866 32.4899 23.7987C32.1974 23.6082 31.968 23.3479 31.8016 23.0179C31.6352 22.6878 31.5521 22.3215 31.5521 21.919V21.7379C31.5521 21.3354 31.6326 20.9664 31.7936 20.631C31.9546 20.2955 32.176 20.0339 32.4577 19.8461C32.7395 19.6582 33.0467 19.5643 33.3795 19.5643C33.8652 19.5643 34.2623 19.7374 34.5709 20.0835C34.8795 20.4297 35.0338 20.8845 35.0338 21.4481V21.6775H31.7694V21.915C31.7694 22.2692 31.8432 22.5979 31.9908 22.9011C32.1411 23.2017 32.3464 23.4378 32.6066 23.6096C32.8696 23.7813 33.1541 23.8672 33.46 23.8672C33.7525 23.8672 34.0007 23.8189 34.2046 23.7223C34.4112 23.623 34.5937 23.4714 34.752 23.2674L34.905 23.3761C34.5803 23.8457 34.0986 24.0805 33.46 24.0805ZM33.3795 19.7817C32.9555 19.7817 32.5959 19.94 32.3007 20.2566C32.0056 20.5706 31.8325 20.9718 31.7815 21.4601H34.8164V21.4078C34.8164 21.1126 34.7534 20.8389 34.6273 20.5867C34.5038 20.3318 34.3321 20.1345 34.112 19.995C33.8947 19.8528 33.6505 19.7817 33.3795 19.7817ZM37.2718 23.6538L38.8376 19.6448H39.071L37.3764 24H37.1631L35.4725 19.6448H35.706L37.2718 23.6538Z" fill="white"/>
<path d="M50.9606 17.2875L53.2699 18.6223C53.3774 18.5093 53.5096 18.4229 53.6562 18.3699C53.8028 18.3169 53.9598 18.2987 54.1146 18.3168C54.2694 18.3349 54.418 18.3888 54.5484 18.4741C54.6788 18.5595 54.7876 18.674 54.8662 18.8087C54.9438 18.9438 54.9889 19.0952 54.9979 19.2508C55.0068 19.4064 54.9794 19.562 54.9178 19.7052C54.8563 19.8484 54.7622 19.9752 54.643 20.0757C54.5239 20.1762 54.383 20.2476 54.2315 20.2842V22.952C54.3832 22.9878 54.5245 23.0587 54.6439 23.159C54.7633 23.2593 54.8576 23.3862 54.9191 23.5295C54.9806 23.6728 55.0077 23.8285 54.9981 23.9841C54.9886 24.1398 54.9427 24.291 54.8641 24.4257C54.7846 24.5629 54.6738 24.6793 54.5407 24.7654C54.4076 24.8515 54.256 24.9048 54.0984 24.9211C53.9407 24.9373 53.7814 24.916 53.6336 24.8588C53.4857 24.8016 53.3535 24.7102 53.2478 24.5921L50.9511 25.9178C51.0009 26.0683 51.0142 26.2285 50.99 26.3851C50.9659 26.5418 50.9048 26.6905 50.812 26.819C50.7192 26.9475 50.5972 27.0522 50.456 27.1244C50.3149 27.1966 50.1586 27.2342 50.0001 27.2343C49.8443 27.2344 49.6906 27.1981 49.5512 27.1283C49.4119 27.0585 49.2908 26.9572 49.1976 26.8323C49.1044 26.7074 49.0416 26.5625 49.0143 26.4091C48.987 26.2557 48.9959 26.098 49.0403 25.9487L46.7292 24.6157C46.6384 24.7111 46.5298 24.7876 46.4094 24.8409C46.289 24.8942 46.1592 24.9232 46.0276 24.9263C45.896 24.9294 45.765 24.9064 45.6423 24.8588C45.5195 24.8111 45.4074 24.7397 45.3123 24.6487C45.1827 24.5241 45.089 24.367 45.0409 24.1939C44.9928 24.0207 44.992 23.8378 45.0387 23.6643C45.0854 23.4908 45.1779 23.3329 45.3064 23.2073C45.4349 23.0817 45.5948 22.9929 45.7694 22.9502V20.2825C45.6295 20.2491 45.4983 20.1861 45.385 20.0976C45.2716 20.009 45.1787 19.8971 45.1124 19.7694C45.0462 19.6417 45.0083 19.5013 45.0012 19.3576C44.9941 19.214 45.0181 19.0705 45.0715 18.9369C45.1249 18.8033 45.2064 18.6828 45.3105 18.5836C45.4147 18.4844 45.5389 18.4087 45.6749 18.3619C45.8109 18.315 45.9554 18.298 46.0985 18.3119C46.2417 18.3259 46.3802 18.3706 46.5045 18.4429C46.5867 18.4903 46.6635 18.5489 46.7295 18.6184L49.0406 17.2854C48.9652 17.031 48.994 16.7571 49.1205 16.524C49.247 16.2908 49.461 16.1174 49.7154 16.0419C49.8883 15.9902 50.072 15.9863 50.247 16.0305C50.422 16.0747 50.5818 16.1654 50.7095 16.2931C50.8371 16.4207 50.9278 16.5805 50.9721 16.7555C51.0163 16.9305 51.0123 17.1142 50.9606 17.2872V17.2875ZM50.7194 17.699C50.7103 17.7081 50.7029 17.7172 50.692 17.7263L53.7165 22.9632C53.7291 22.9597 53.7438 22.9558 53.7547 22.9523V20.2811C53.6273 20.2496 53.5074 20.1932 53.4019 20.1153C53.2963 20.0374 53.2072 19.9394 53.1395 19.8269C53.0719 19.7144 53.0272 19.5897 53.0079 19.46C52.9885 19.3302 52.995 19.1979 53.027 19.0706C53.0287 19.0597 53.0326 19.0467 53.0343 19.0358L50.7194 17.699ZM49.3078 17.7263L49.2804 17.699L46.9655 19.0337C47.0388 19.2886 47.0079 19.5621 46.8797 19.7942C46.7515 20.0263 46.5363 20.198 46.2816 20.2716L46.2451 20.2807V22.952L46.2854 22.9628L49.3099 17.726L49.3078 17.7263ZM50.2806 17.964C50.0982 18.0153 49.9051 18.0153 49.7227 17.964L46.6983 23.2009C46.8356 23.3325 46.9325 23.5024 46.9799 23.6892H53.0231C53.0687 23.5028 53.1656 23.3325 53.3047 23.1991L50.2806 17.964ZM50.7412 25.5593L53.0414 24.2302C53.034 24.2081 53.0287 24.1863 53.0231 24.1642H46.9781L46.9672 24.2025L49.2804 25.5372C49.3737 25.4403 49.4856 25.3634 49.6094 25.3109C49.7332 25.2584 49.8663 25.2315 50.0008 25.2318C50.2953 25.2318 50.5586 25.3578 50.7412 25.559V25.5593Z" fill="white"/>
<path d="M22.6629 3.93081H27.1896V4.30535H23.078V7.12399H26.9444V7.49854H23.078V10.5932H27.2367V10.9677H22.6629V3.93081ZM27.595 3.93081H28.0761L30.2074 7.02542L32.3858 3.93081L35.3488 0L30.4809 7.35068L32.9893 10.9677H32.4895L30.2074 7.67594L27.9158 10.9677H27.4254L29.9527 7.35068L27.5952 3.93081H27.595ZM33.1686 4.30535V3.93081H38.3269V4.30535H35.9506V10.9675H35.5355V4.30535H33.1687H33.1686ZM17 3.93081H17.5187L24.6709 15.0715L21.7152 10.9677L17.4337 4.463L17.4149 10.9677H17V3.93081ZM38.2853 10.4801C38.2003 10.4801 38.1368 10.4117 38.1368 10.3234C38.1368 10.235 38.2003 10.1666 38.2851 10.1666C38.3709 10.1666 38.4335 10.235 38.4335 10.3234C38.4335 10.4117 38.3709 10.4801 38.2851 10.4801H38.2853ZM38.6929 10.0677H38.915C38.9181 10.193 39.006 10.277 39.1351 10.277C39.2794 10.277 39.3611 10.1867 39.3611 10.0172V8.94441H39.5872V10.0183C39.5872 10.3234 39.4177 10.4991 39.137 10.4991C38.8737 10.4991 38.693 10.3287 38.693 10.0677H38.6929ZM39.8828 10.0542H40.1069C40.126 10.1982 40.2612 10.2897 40.4561 10.2897C40.6376 10.2897 40.7709 10.1918 40.7709 10.0572C40.7709 9.94162 40.6862 9.87208 40.4933 9.82482L40.3056 9.77756C40.0423 9.71342 39.9221 9.58075 39.9221 9.35778C39.9221 9.08737 40.134 8.90744 40.4519 8.90744C40.7476 8.90744 40.9638 9.08737 40.9768 9.34292H40.7567C40.7356 9.20316 40.6186 9.11573 40.4489 9.11573C40.2702 9.11573 40.1512 9.20519 40.1512 9.34191C40.1512 9.45027 40.2279 9.51239 40.4177 9.55864L40.5781 9.59965C40.8768 9.67223 41 9.79849 41 10.0267C41 10.317 40.7839 10.4991 40.4389 10.4991C40.116 10.4991 39.8988 10.3255 39.8828 10.054V10.0542Z" fill="white"/>
<path d="M5.59928 9.01968C6.16244 9.01968 6.61896 8.56315 6.61896 8C6.61896 7.43685 6.16244 6.98032 5.59928 6.98032C5.03613 6.98032 4.57961 7.43685 4.57961 8C4.57961 8.56315 5.03613 9.01968 5.59928 9.01968Z" fill="white"/>
<path d="M9.47227 6.31843C9.27549 6.24687 9.06977 6.17531 8.8551 6.1127C8.90877 5.89803 8.95349 5.68336 8.98927 5.47764C9.1771 4.29696 8.97138 3.46512 8.39893 3.14311C8.22898 3.04472 8.04115 3 7.82648 3C7.20036 3 6.40429 3.46512 5.59928 4.24329C4.79428 3.46512 3.99821 3 3.37209 3C3.15742 3 2.96959 3.04472 2.79964 3.14311C2.22719 3.47406 2.02147 4.3059 2.2093 5.47764C2.24508 5.68336 2.2898 5.89803 2.34347 6.1127C2.1288 6.17531 1.92308 6.23792 1.7263 6.31843C0.608229 6.74776 0 7.3381 0 8C0 8.6619 0.617174 9.25224 1.7263 9.68157C1.92308 9.75313 2.1288 9.82469 2.34347 9.8873C2.2898 10.102 2.24508 10.3166 2.2093 10.5224C2.02147 11.703 2.22719 12.5349 2.79964 12.8569C2.96959 12.9553 3.15742 13 3.37209 13C4.00716 13 4.80322 12.5349 5.59928 11.7567C6.40429 12.5349 7.20036 13 7.82648 13C8.04115 13 8.22898 12.9553 8.39893 12.8569C8.97138 12.5259 9.1771 11.6941 8.98927 10.5224C8.95349 10.3166 8.90877 10.102 8.8551 9.8873C9.06977 9.82469 9.27549 9.76208 9.47227 9.68157C10.5903 9.25224 11.1986 8.6619 11.1986 8C11.1986 7.3381 10.5903 6.74776 9.47227 6.31843ZM8.14848 3.59034C8.51521 3.80501 8.64043 4.46691 8.48837 5.40608C8.46154 5.59392 8.41682 5.7907 8.36315 5.99642C7.89803 5.88909 7.40608 5.81753 6.8873 5.77281C6.58318 5.34347 6.27013 4.95886 5.95707 4.61002C6.61896 3.95707 7.2898 3.50984 7.83542 3.50984C7.9517 3.50984 8.05903 3.53667 8.14848 3.59034V3.59034ZM7.14669 8.89445C6.98569 9.18068 6.79785 9.4669 6.60107 9.75313C6.27013 9.77996 5.93918 9.78891 5.59928 9.78891C5.25045 9.78891 4.9195 9.77996 4.5975 9.75313C4.40072 9.4669 4.22182 9.18068 4.06082 8.89445C3.89088 8.59928 3.72987 8.29517 3.58676 8C3.72987 7.70483 3.89088 7.40072 4.06082 7.10555C4.22182 6.81932 4.40966 6.53309 4.60644 6.24687C4.93739 6.22004 5.26834 6.21109 5.60823 6.21109C5.95707 6.21109 6.28801 6.22004 6.61002 6.24687C6.8068 6.53309 6.98569 6.81932 7.14669 7.10555C7.31664 7.40072 7.47764 7.70483 7.62075 8C7.46869 8.29517 7.31664 8.59034 7.14669 8.89445ZM7.88909 8.59928C8.02326 8.91234 8.13059 9.21646 8.22898 9.52057C7.92487 9.59213 7.60286 9.6458 7.26297 9.69052C7.3703 9.52057 7.48658 9.34168 7.58497 9.15385C7.69231 8.96601 7.7907 8.77817 7.88909 8.59928ZM5.59928 11.0233C5.38462 10.7907 5.17889 10.5403 4.98211 10.2809C5.18784 10.2898 5.39356 10.2987 5.59928 10.2987C5.80501 10.2987 6.01073 10.2898 6.21646 10.2809C6.01968 10.5403 5.81395 10.7907 5.59928 11.0233ZM3.9356 9.68157C3.59571 9.63685 3.2737 9.58318 2.96959 9.51163C3.06798 9.21646 3.17531 8.9034 3.30948 8.59034C3.40787 8.76923 3.50626 8.95707 3.6136 9.13596C3.72093 9.33274 3.82826 9.50268 3.9356 9.68157V9.68157ZM3.30948 7.40072C3.17531 7.08766 3.06798 6.78354 2.96959 6.47943C3.2737 6.40787 3.59571 6.3542 3.9356 6.30948C3.82826 6.47943 3.71199 6.65832 3.6136 6.84615C3.50626 7.03399 3.40787 7.22182 3.30948 7.40072V7.40072ZM5.59928 4.97674C5.81395 5.2093 6.01968 5.45975 6.21646 5.71914C6.01073 5.7102 5.80501 5.70125 5.59928 5.70125C5.39356 5.70125 5.18784 5.7102 4.98211 5.71914C5.17889 5.45975 5.38462 5.2093 5.59928 4.97674V4.97674ZM7.58497 6.8551L7.26297 6.31843C7.60286 6.36315 7.92487 6.41682 8.22898 6.48837C8.13059 6.78354 8.02326 7.0966 7.88909 7.40966C7.7907 7.22182 7.69231 7.03399 7.58497 6.8551V6.8551ZM2.7102 5.40608C2.55814 4.46691 2.68336 3.80501 3.05009 3.59034C3.13953 3.53667 3.24687 3.50984 3.36315 3.50984C3.89982 3.50984 4.57066 3.94812 5.2415 4.61002C4.92844 4.94991 4.61538 5.34347 4.31127 5.77281C3.79249 5.81753 3.30054 5.89803 2.83542 5.99642C2.78175 5.7907 2.74598 5.59392 2.7102 5.40608ZM0.500894 8C0.500894 7.57961 1.01073 7.13238 1.90519 6.80143C2.08408 6.72987 2.28086 6.66726 2.47764 6.6136C2.62075 7.06082 2.79964 7.53488 3.01431 8.00894C2.79964 8.48301 2.61181 8.94812 2.47764 9.39535C1.24329 9.03757 0.500894 8.50089 0.500894 8V8ZM3.05009 12.4097C2.68336 12.195 2.55814 11.5331 2.7102 10.5939C2.73703 10.4061 2.78175 10.2093 2.83542 10.0036C3.30054 10.1109 3.79249 10.1825 4.31127 10.2272C4.61538 10.6565 4.92844 11.0411 5.2415 11.39C4.57961 12.0429 3.90877 12.4902 3.36315 12.4902C3.24687 12.4902 3.13953 12.4633 3.05009 12.4097ZM8.48837 10.5939C8.64043 11.5331 8.51521 12.195 8.14848 12.4097C8.05903 12.4633 7.9517 12.4902 7.83542 12.4902C7.29875 12.4902 6.62791 12.0519 5.95707 11.39C6.27013 11.0501 6.58318 10.6565 6.8873 10.2272C7.40608 10.1825 7.89803 10.102 8.36315 10.0036C8.41682 10.2093 8.45259 10.4061 8.48837 10.5939V10.5939ZM9.29338 9.19857C9.11449 9.27013 8.91771 9.33274 8.72093 9.3864C8.57782 8.93918 8.39893 8.46512 8.18426 7.99106C8.39893 7.51699 8.58676 7.05188 8.72093 6.60465C9.95528 6.96243 10.6977 7.49911 10.6977 8C10.6977 8.42039 10.1789 8.86762 9.29338 9.19857V9.19857Z" fill="white"/>
<path d="M44.6445 7.42773L46.1729 8.04541V8.52393L44.1758 7.59863V7.24219L46.1729 6.31934V6.79785L44.6445 7.42773ZM48.4238 8.29932C48.4238 8.17725 48.3774 8.08285 48.2847 8.01611C48.1935 7.94775 48.0332 7.88916 47.8037 7.84033C47.5758 7.7915 47.3944 7.73291 47.2593 7.66455C47.1258 7.59619 47.0265 7.51481 46.9614 7.42041C46.8979 7.32601 46.8662 7.2137 46.8662 7.0835C46.8662 6.86702 46.9574 6.68392 47.1396 6.53418C47.3236 6.38444 47.5579 6.30957 47.8428 6.30957C48.1423 6.30957 48.3848 6.38688 48.5703 6.5415C48.7575 6.69613 48.8511 6.89388 48.8511 7.13477H48.397C48.397 7.01107 48.3441 6.90446 48.2383 6.81494C48.1341 6.72542 48.0023 6.68066 47.8428 6.68066C47.6784 6.68066 47.5498 6.71647 47.457 6.78809C47.3643 6.8597 47.3179 6.95329 47.3179 7.06885C47.3179 7.1779 47.361 7.26009 47.4473 7.31543C47.5335 7.37077 47.689 7.42367 47.9136 7.47412C48.1398 7.52458 48.3229 7.5848 48.4629 7.65479C48.6029 7.72477 48.7062 7.80941 48.7729 7.90869C48.8413 8.00635 48.8755 8.12598 48.8755 8.26758C48.8755 8.50358 48.7811 8.6932 48.5923 8.83643C48.4035 8.97803 48.1585 9.04883 47.8574 9.04883C47.6458 9.04883 47.4587 9.01139 47.2959 8.93652C47.1331 8.86165 47.0054 8.75749 46.9126 8.62402C46.8215 8.48893 46.7759 8.34326 46.7759 8.18701H47.2275C47.2357 8.33838 47.2959 8.45882 47.4082 8.54834C47.5221 8.63623 47.6719 8.68018 47.8574 8.68018C48.0283 8.68018 48.165 8.646 48.2676 8.57764C48.3717 8.50765 48.4238 8.41488 48.4238 8.29932ZM50.0767 5.71875V6.3584H50.5698V6.70752H50.0767V8.3457C50.0767 8.4515 50.0986 8.53125 50.1426 8.58496C50.1865 8.63704 50.2614 8.66309 50.3672 8.66309C50.4193 8.66309 50.4909 8.65332 50.582 8.63379V9C50.4632 9.03255 50.3477 9.04883 50.2354 9.04883C50.0335 9.04883 49.8813 8.98779 49.7788 8.86572C49.6763 8.74365 49.625 8.57031 49.625 8.3457V6.70752H49.144V6.3584H49.625V5.71875H50.0767ZM51.9639 8.33838L52.5791 6.3584H53.0625L52.0005 9.40771C51.8361 9.84717 51.5749 10.0669 51.2168 10.0669L51.1313 10.0596L50.9629 10.0278V9.66162L51.085 9.67139C51.238 9.67139 51.3568 9.64046 51.4414 9.57861C51.5277 9.51676 51.5985 9.40365 51.6538 9.23926L51.7539 8.9707L50.8115 6.3584H51.3047L51.9639 8.33838ZM53.9585 9H53.5068V5.25H53.9585V9ZM55.7798 9.04883C55.4217 9.04883 55.1304 8.93164 54.9058 8.69727C54.6812 8.46126 54.5688 8.14632 54.5688 7.75244V7.66943C54.5688 7.40739 54.6185 7.17383 54.7178 6.96875C54.8187 6.76204 54.9587 6.60091 55.1377 6.48535C55.3184 6.36816 55.5137 6.30957 55.7236 6.30957C56.0671 6.30957 56.334 6.42269 56.5244 6.64893C56.7148 6.87516 56.8101 7.19906 56.8101 7.62061V7.80859H55.0205C55.027 8.06901 55.1027 8.27979 55.2476 8.44092C55.394 8.60042 55.5796 8.68018 55.8042 8.68018C55.9637 8.68018 56.0988 8.64762 56.2095 8.58252C56.3201 8.51742 56.417 8.43115 56.5 8.32373L56.7759 8.53857C56.5545 8.87874 56.2225 9.04883 55.7798 9.04883ZM55.7236 6.68066C55.5413 6.68066 55.3883 6.7474 55.2646 6.88086C55.141 7.0127 55.0645 7.19824 55.0352 7.4375H56.3584V7.40332C56.3454 7.17383 56.2835 6.99642 56.1729 6.87109C56.0622 6.74414 55.9124 6.68066 55.7236 6.68066ZM57.2251 7.65723C57.2251 7.25195 57.3211 6.92643 57.5132 6.68066C57.7052 6.43327 57.9567 6.30957 58.2676 6.30957C58.5768 6.30957 58.8218 6.41536 59.0024 6.62695V5.25H59.4541V9H59.0391L59.0171 8.7168C58.8364 8.93815 58.585 9.04883 58.2627 9.04883C57.9567 9.04883 57.7069 8.9235 57.5132 8.67285C57.3211 8.4222 57.2251 8.09505 57.2251 7.69141V7.65723ZM57.6768 7.7085C57.6768 8.00798 57.7386 8.24235 57.8623 8.41162C57.986 8.58089 58.1569 8.66553 58.375 8.66553C58.6615 8.66553 58.8706 8.53695 59.0024 8.27979V7.06641C58.8674 6.81738 58.6598 6.69287 58.3799 6.69287C58.1585 6.69287 57.986 6.77832 57.8623 6.94922C57.7386 7.12012 57.6768 7.37321 57.6768 7.7085ZM61.0972 7.67432H59.9058V7.30566H61.0972V7.67432ZM62.5986 8.68018C62.7598 8.68018 62.9006 8.63135 63.021 8.53369C63.1414 8.43604 63.2082 8.31396 63.2212 8.16748H63.6484C63.6403 8.31885 63.5882 8.46289 63.4922 8.59961C63.3962 8.73633 63.2676 8.84538 63.1064 8.92676C62.9469 9.00814 62.7777 9.04883 62.5986 9.04883C62.2389 9.04883 61.9525 8.9292 61.7393 8.68994C61.5277 8.44906 61.4219 8.12028 61.4219 7.70361V7.62793C61.4219 7.37077 61.4691 7.14209 61.5635 6.94189C61.6579 6.7417 61.793 6.58626 61.9688 6.47559C62.1462 6.36491 62.3553 6.30957 62.5962 6.30957C62.8924 6.30957 63.1382 6.39827 63.3335 6.57568C63.5304 6.75309 63.6354 6.9834 63.6484 7.2666H63.2212C63.2082 7.0957 63.1431 6.95573 63.0259 6.84668C62.9103 6.736 62.7671 6.68066 62.5962 6.68066C62.3667 6.68066 62.1885 6.76367 62.0615 6.92969C61.9362 7.09408 61.8735 7.33252 61.8735 7.64502V7.73047C61.8735 8.03483 61.9362 8.26921 62.0615 8.43359C62.1868 8.59798 62.3659 8.68018 62.5986 8.68018ZM64.0366 7.65479C64.0366 7.396 64.0871 7.16325 64.188 6.95654C64.2905 6.74984 64.4321 6.59033 64.6128 6.47803C64.7951 6.36572 65.0026 6.30957 65.2354 6.30957C65.5951 6.30957 65.8856 6.43408 66.1069 6.68311C66.3299 6.93213 66.4414 7.26335 66.4414 7.67676V7.7085C66.4414 7.96566 66.3918 8.19678 66.2925 8.40186C66.1948 8.60531 66.054 8.764 65.8701 8.87793C65.6878 8.99186 65.4779 9.04883 65.2402 9.04883C64.8822 9.04883 64.5916 8.92432 64.3687 8.67529C64.1473 8.42627 64.0366 8.09668 64.0366 7.68652V7.65479ZM64.4907 7.7085C64.4907 8.00146 64.5583 8.23665 64.6934 8.41406C64.8301 8.59147 65.0124 8.68018 65.2402 8.68018C65.4697 8.68018 65.652 8.59066 65.7871 8.41162C65.9222 8.23096 65.9897 7.97868 65.9897 7.65479C65.9897 7.36507 65.9206 7.1307 65.7822 6.95166C65.6455 6.771 65.4632 6.68066 65.2354 6.68066C65.0124 6.68066 64.8325 6.76937 64.6958 6.94678C64.5591 7.12419 64.4907 7.37809 64.4907 7.7085ZM67.4326 6.3584L67.4448 6.65137C67.6385 6.4235 67.8997 6.30957 68.2285 6.30957C68.598 6.30957 68.8494 6.45117 68.9829 6.73438C69.0708 6.60742 69.1847 6.50488 69.3247 6.42676C69.4663 6.34863 69.6331 6.30957 69.8252 6.30957C70.4046 6.30957 70.6992 6.61637 70.709 7.22998V9H70.2573V7.25684C70.2573 7.06803 70.2142 6.92725 70.1279 6.83447C70.0417 6.74007 69.8968 6.69287 69.6934 6.69287C69.5257 6.69287 69.3866 6.74333 69.2759 6.84424C69.1652 6.94352 69.1009 7.0778 69.083 7.24707V9H68.6289V7.26904C68.6289 6.88493 68.4409 6.69287 68.0649 6.69287C67.7687 6.69287 67.5661 6.81901 67.457 7.07129V9H67.0054V6.3584H67.4326ZM73.624 7.7085C73.624 8.11051 73.5321 8.43441 73.3481 8.68018C73.1642 8.92594 72.9152 9.04883 72.6011 9.04883C72.2804 9.04883 72.0282 8.9471 71.8442 8.74365V10.0156H71.3926V6.3584H71.8052L71.8271 6.65137C72.0111 6.4235 72.2666 6.30957 72.5938 6.30957C72.9111 6.30957 73.1618 6.4292 73.3457 6.66846C73.5312 6.90771 73.624 7.24056 73.624 7.66699V7.7085ZM73.1724 7.65723C73.1724 7.35938 73.1089 7.12419 72.9819 6.95166C72.855 6.77913 72.6808 6.69287 72.4595 6.69287C72.186 6.69287 71.981 6.81413 71.8442 7.05664V8.31885C71.9793 8.55973 72.186 8.68018 72.4644 8.68018C72.6808 8.68018 72.8525 8.59473 72.9795 8.42383C73.1081 8.2513 73.1724 7.99577 73.1724 7.65723ZM74.0806 7.65479C74.0806 7.396 74.131 7.16325 74.2319 6.95654C74.3345 6.74984 74.4761 6.59033 74.6567 6.47803C74.839 6.36572 75.0465 6.30957 75.2793 6.30957C75.639 6.30957 75.9295 6.43408 76.1509 6.68311C76.3739 6.93213 76.4854 7.26335 76.4854 7.67676V7.7085C76.4854 7.96566 76.4357 8.19678 76.3364 8.40186C76.2388 8.60531 76.098 8.764 75.9141 8.87793C75.7318 8.99186 75.5218 9.04883 75.2842 9.04883C74.9261 9.04883 74.6356 8.92432 74.4126 8.67529C74.1912 8.42627 74.0806 8.09668 74.0806 7.68652V7.65479ZM74.5347 7.7085C74.5347 8.00146 74.6022 8.23665 74.7373 8.41406C74.874 8.59147 75.0563 8.68018 75.2842 8.68018C75.5137 8.68018 75.696 8.59066 75.8311 8.41162C75.9661 8.23096 76.0337 7.97868 76.0337 7.65479C76.0337 7.36507 75.9645 7.1307 75.8262 6.95166C75.6895 6.771 75.5072 6.68066 75.2793 6.68066C75.0563 6.68066 74.8765 6.76937 74.7397 6.94678C74.603 7.12419 74.5347 7.37809 74.5347 7.7085ZM77.479 6.3584L77.4937 6.69043C77.6955 6.43652 77.9591 6.30957 78.2847 6.30957C78.8429 6.30957 79.1245 6.62451 79.1294 7.25439V9H78.6777V7.25195C78.6761 7.06152 78.6322 6.92074 78.5459 6.82959C78.4613 6.73844 78.3286 6.69287 78.1479 6.69287C78.0015 6.69287 77.8729 6.73193 77.7622 6.81006C77.6515 6.88818 77.5653 6.99072 77.5034 7.11768V9H77.0518V6.3584H77.479ZM80.9067 9.04883C80.5487 9.04883 80.2573 8.93164 80.0327 8.69727C79.8081 8.46126 79.6958 8.14632 79.6958 7.75244V7.66943C79.6958 7.40739 79.7454 7.17383 79.8447 6.96875C79.9456 6.76204 80.0856 6.60091 80.2646 6.48535C80.4453 6.36816 80.6406 6.30957 80.8506 6.30957C81.194 6.30957 81.4609 6.42269 81.6514 6.64893C81.8418 6.87516 81.937 7.19906 81.937 7.62061V7.80859H80.1475C80.154 8.06901 80.2297 8.27979 80.3745 8.44092C80.521 8.60042 80.7065 8.68018 80.9312 8.68018C81.0907 8.68018 81.2257 8.64762 81.3364 8.58252C81.4471 8.51742 81.5439 8.43115 81.627 8.32373L81.9028 8.53857C81.6815 8.87874 81.3494 9.04883 80.9067 9.04883ZM80.8506 6.68066C80.6683 6.68066 80.5153 6.7474 80.3916 6.88086C80.2679 7.0127 80.1914 7.19824 80.1621 7.4375H81.4854V7.40332C81.4723 7.17383 81.4105 6.99642 81.2998 6.87109C81.1891 6.74414 81.0394 6.68066 80.8506 6.68066ZM82.8892 6.3584L82.9038 6.69043C83.1056 6.43652 83.3693 6.30957 83.6948 6.30957C84.2531 6.30957 84.5347 6.62451 84.5396 7.25439V9H84.0879V7.25195C84.0863 7.06152 84.0423 6.92074 83.9561 6.82959C83.8714 6.73844 83.7388 6.69287 83.5581 6.69287C83.4116 6.69287 83.283 6.73193 83.1724 6.81006C83.0617 6.88818 82.9754 6.99072 82.9136 7.11768V9H82.4619V6.3584H82.8892ZM85.8335 5.71875V6.3584H86.3267V6.70752H85.8335V8.3457C85.8335 8.4515 85.8555 8.53125 85.8994 8.58496C85.9434 8.63704 86.0182 8.66309 86.124 8.66309C86.1761 8.66309 86.2477 8.65332 86.3389 8.63379V9C86.2201 9.03255 86.1045 9.04883 85.9922 9.04883C85.7904 9.04883 85.6382 8.98779 85.5356 8.86572C85.4331 8.74365 85.3818 8.57031 85.3818 8.3457V6.70752H84.9009V6.3584H85.3818V5.71875H85.8335ZM88.3945 8.29932C88.3945 8.17725 88.3481 8.08285 88.2554 8.01611C88.1642 7.94775 88.0039 7.88916 87.7744 7.84033C87.5465 7.7915 87.3651 7.73291 87.23 7.66455C87.0965 7.59619 86.9972 7.51481 86.9321 7.42041C86.8687 7.32601 86.8369 7.2137 86.8369 7.0835C86.8369 6.86702 86.9281 6.68392 87.1104 6.53418C87.2943 6.38444 87.5286 6.30957 87.8135 6.30957C88.113 6.30957 88.3555 6.38688 88.541 6.5415C88.7282 6.69613 88.8218 6.89388 88.8218 7.13477H88.3677C88.3677 7.01107 88.3148 6.90446 88.209 6.81494C88.1048 6.72542 87.973 6.68066 87.8135 6.68066C87.6491 6.68066 87.5205 6.71647 87.4277 6.78809C87.335 6.8597 87.2886 6.95329 87.2886 7.06885C87.2886 7.1779 87.3317 7.26009 87.418 7.31543C87.5042 7.37077 87.6597 7.42367 87.8843 7.47412C88.1105 7.52458 88.2936 7.5848 88.4336 7.65479C88.5736 7.72477 88.6769 7.80941 88.7437 7.90869C88.812 8.00635 88.8462 8.12598 88.8462 8.26758C88.8462 8.50358 88.7518 8.6932 88.563 8.83643C88.3742 8.97803 88.1292 9.04883 87.8281 9.04883C87.6165 9.04883 87.4294 9.01139 87.2666 8.93652C87.1038 8.86165 86.9761 8.75749 86.8833 8.62402C86.7922 8.48893 86.7466 8.34326 86.7466 8.18701H87.1982C87.2064 8.33838 87.2666 8.45882 87.3789 8.54834C87.4928 8.63623 87.6426 8.68018 87.8281 8.68018C87.999 8.68018 88.1357 8.646 88.2383 8.57764C88.3424 8.50765 88.3945 8.41488 88.3945 8.29932ZM91.0337 7.41309L89.4199 6.78076V6.31689L91.5049 7.23975V7.59619L89.4199 8.52148V8.05273L91.0337 7.41309Z" fill="white"/>
<path d="M57.305 21.2524C57.305 20.7164 57.429 20.2907 57.6768 19.975C57.9247 19.6573 58.253 19.4984 58.6618 19.4984C59.0813 19.4984 59.4085 19.6467 59.6437 19.9432L59.6723 19.562H60.2093V22.9174C60.2093 23.3622 60.0769 23.7128 59.8121 23.9691C59.5494 24.2255 59.1956 24.3536 58.7508 24.3536C58.503 24.3536 58.2604 24.3007 58.0232 24.1947C57.7859 24.0888 57.6048 23.9437 57.4798 23.7594L57.7848 23.4067C58.0369 23.7181 58.3451 23.8738 58.7095 23.8738C58.9955 23.8738 59.2179 23.7933 59.3768 23.6323C59.5378 23.4713 59.6183 23.2447 59.6183 22.9523V22.6568C59.3831 22.928 59.0622 23.0635 58.6555 23.0635C58.253 23.0635 57.9268 22.9015 57.6768 22.5774C57.429 22.2533 57.305 21.8116 57.305 21.2524ZM57.8961 21.3191C57.8961 21.7068 57.9755 22.0118 58.1344 22.2342C58.2932 22.4545 58.5157 22.5647 58.8016 22.5647C59.1723 22.5647 59.4446 22.3963 59.6183 22.0595V20.4898C59.4382 20.1614 59.1681 19.9973 58.808 19.9973C58.522 19.9973 58.2985 20.1085 58.1375 20.3309C57.9766 20.5533 57.8961 20.8827 57.8961 21.3191ZM62.7608 20.0894C62.6718 20.0746 62.5754 20.0672 62.4716 20.0672C62.0861 20.0672 61.8245 20.2313 61.6868 20.5597V23H61.099V19.562H61.6709L61.6805 19.9591C61.8732 19.652 62.1465 19.4984 62.5002 19.4984C62.6146 19.4984 62.7015 19.5132 62.7608 19.5429V20.0894ZM65.2996 23C65.2657 22.9322 65.2382 22.8115 65.217 22.6378C64.9437 22.9216 64.6175 23.0635 64.2383 23.0635C63.8994 23.0635 63.6208 22.9682 63.4027 22.7776C63.1866 22.5848 63.0785 22.3412 63.0785 22.0468C63.0785 21.6888 63.2141 21.4113 63.4853 21.2142C63.7585 21.0151 64.142 20.9156 64.6355 20.9156H65.2075V20.6455C65.2075 20.44 65.146 20.2769 65.0232 20.1561C64.9003 20.0333 64.7192 19.9718 64.4798 19.9718C64.2701 19.9718 64.0943 20.0248 63.9524 20.1307C63.8104 20.2366 63.7395 20.3648 63.7395 20.5152H63.1485C63.1485 20.3436 63.2088 20.1784 63.3296 20.0195C63.4524 19.8585 63.6177 19.7314 63.8253 19.6382C64.035 19.545 64.2648 19.4984 64.5148 19.4984C64.9109 19.4984 65.2212 19.598 65.4458 19.7971C65.6703 19.9941 65.7868 20.2663 65.7953 20.6137V22.1961C65.7953 22.5117 65.8356 22.7627 65.9161 22.9492V23H65.2996ZM64.3241 22.552C64.5084 22.552 64.6832 22.5043 64.8484 22.409C65.0136 22.3137 65.1333 22.1897 65.2075 22.0372V21.3318H64.7467C64.0265 21.3318 63.6664 21.5426 63.6664 21.9641C63.6664 22.1484 63.7278 22.2925 63.8507 22.3963C63.9735 22.5001 64.1314 22.552 64.3241 22.552ZM69.621 21.3191C69.621 21.8423 69.5013 22.2639 69.262 22.5837C69.0226 22.9036 68.6985 23.0635 68.2896 23.0635C67.8723 23.0635 67.544 22.9312 67.3046 22.6664V24.3218H66.7168V19.562H67.2538L67.2824 19.9432C67.5217 19.6467 67.8543 19.4984 68.2801 19.4984C68.6932 19.4984 69.0194 19.6541 69.2588 19.9655C69.5003 20.2769 69.621 20.7101 69.621 21.2651V21.3191ZM69.0332 21.2524C69.0332 20.8647 68.9506 20.5586 68.7853 20.3341C68.6201 20.1095 68.3934 19.9973 68.1053 19.9973C67.7495 19.9973 67.4826 20.1551 67.3046 20.4707V22.1135C67.4804 22.427 67.7495 22.5837 68.1117 22.5837C68.3934 22.5837 68.6169 22.4725 68.7822 22.2501C68.9495 22.0256 69.0332 21.693 69.0332 21.2524ZM70.9587 19.9782C71.2193 19.6583 71.5582 19.4984 71.9755 19.4984C72.7021 19.4984 73.0686 19.9083 73.0749 20.7281V23H72.4871V20.7249C72.485 20.4771 72.4278 20.2938 72.3155 20.1752C72.2054 20.0566 72.0327 19.9973 71.7976 19.9973C71.6069 19.9973 71.4396 20.0481 71.2956 20.1498C71.1515 20.2515 71.0392 20.3849 70.9587 20.5502V23H70.3709V18.1194H70.9587V19.9782ZM73.8121 21.2524C73.8121 20.7122 73.936 20.2854 74.1839 19.9718C74.4317 19.6562 74.7643 19.4984 75.1816 19.4984C75.5883 19.4984 75.9093 19.635 76.1444 19.9083L76.1698 19.562H76.71V24.3218H76.1222V22.6823C75.8849 22.9365 75.5693 23.0635 75.1753 23.0635C74.7601 23.0635 74.4286 22.9026 74.1807 22.5806C73.935 22.2565 73.8121 21.8275 73.8121 21.2937V21.2524ZM74.4 21.3191C74.4 21.7131 74.4826 22.0224 74.6478 22.2469C74.8152 22.4715 75.0397 22.5837 75.3214 22.5837C75.671 22.5837 75.9379 22.4291 76.1222 22.1198V20.4358C75.9358 20.1328 75.671 19.9814 75.3278 19.9814C75.0439 19.9814 74.8183 20.0947 74.651 20.3214C74.4836 20.5459 74.4 20.8785 74.4 21.3191ZM78.2924 23H77.7046V18.1194H78.2924V23Z" fill="white"/>
</svg>
