<svg width="21" height="20" viewBox="0 0 21 20" fill="none" xmlns="http://www.w3.org/2000/svg">
<path d="M1.00551 17.9954L19.0003 17.9954C19.2654 17.9954 19.5197 18.1007 19.7072 18.2881C19.8947 18.4755 20 18.7297 20 18.9948C20 19.2598 19.8947 19.5141 19.7072 19.7015C19.5197 19.8889 19.2654 19.9942 19.0003 19.9942L1.00551 19.9942C0.740369 19.9942 0.486089 19.8889 0.298607 19.7015C0.111125 19.5141 0.0057984 19.2598 0.00579843 18.9948C0.00579845 18.7297 0.111125 18.4755 0.298607 18.2881C0.486089 18.1007 0.740369 17.9954 1.00551 17.9954V17.9954ZM7.00377 10L1.00551 10C0.74037 10 0.48609 9.8947 0.298608 9.70728C0.111126 9.51985 0.00579928 9.26564 0.0057993 9.00058C0.00579932 8.73552 0.111126 8.48131 0.298608 8.29388C0.48609 8.10645 0.74037 8.00116 1.00551 8.00116L7.00377 8.00116C7.26891 8.00116 7.52319 8.10645 7.71067 8.29388C7.89815 8.48131 8.00348 8.73552 8.00348 9.00058C8.00348 9.26564 7.89815 9.51985 7.71067 9.70728C7.52319 9.8947 7.26891 10 7.00377 10ZM9.00319 14.9971L1.00551 14.9971C0.740369 14.9971 0.486089 14.8918 0.298607 14.7044C0.111125 14.5169 0.00579884 14.2627 0.00579886 13.9977C0.00579889 13.7326 0.111125 13.4784 0.298607 13.291C0.486089 13.1036 0.740369 12.9983 1.00551 12.9983L9.00319 12.9983C9.26833 12.9983 9.52261 13.1036 9.71009 13.291C9.89757 13.4784 10.0029 13.7326 10.0029 13.9977C10.0029 14.2627 9.89757 14.5169 9.71009 14.7044C9.52261 14.8918 9.26833 14.9971 9.00319 14.9971ZM15.7112 14.7073C15.6183 14.8009 15.5077 14.8753 15.3859 14.926C15.2641 14.9768 15.1334 15.0029 15.0015 15.0029C14.8695 15.0029 14.7388 14.9768 14.617 14.926C14.4952 14.8753 14.3846 14.8009 14.2917 14.7073L10.2928 10.7096C10.1046 10.5214 9.99881 10.2661 9.99881 10C9.99881 9.73385 10.1046 9.47861 10.2928 9.29041C10.4811 9.10222 10.7364 8.99649 11.0026 8.99649C11.2688 8.99649 11.5242 9.10222 11.7124 9.29041L14.0017 11.5891L14.0017 1.00522C14.0017 0.740155 14.1071 0.485948 14.2945 0.29852C14.482 0.111092 14.7363 0.00579724 15.0015 0.00579727C15.2666 0.00579729 15.5209 0.111092 15.7084 0.29852C15.8958 0.485948 16.0012 0.740155 16.0012 1.00522L16.0012 11.5891L18.2905 9.29041C18.3834 9.19674 18.494 9.12239 18.6158 9.07165C18.7377 9.02091 18.8683 8.99479 19.0003 8.99479C19.1323 8.99479 19.2629 9.02091 19.3848 9.07165C19.5066 9.12239 19.6171 9.19674 19.7101 9.29041C19.8038 9.38332 19.8782 9.49386 19.9289 9.61565C19.9797 9.73744 20.0058 9.86807 20.0058 10C20.0058 10.1319 19.9797 10.2626 19.9289 10.3844C19.8782 10.5061 19.8038 10.6167 19.7101 10.7096L15.7112 14.7073Z" fill="white"/>
</svg>
