<svg width="21" height="20" viewBox="0 0 21 20" fill="none" xmlns="http://www.w3.org/2000/svg">
<path d="M1 2H19C19.2652 2 19.5196 1.89464 19.7071 1.70711C19.8946 1.51957 20 1.26522 20 1C20 0.734784 19.8946 0.48043 19.7071 0.292893C19.5196 0.105357 19.2652 0 19 0H1C0.734784 0 0.48043 0.105357 0.292893 0.292893C0.105357 0.48043 0 0.734784 0 1C0 1.26522 0.105357 1.51957 0.292893 1.70711C0.48043 1.89464 0.734784 2 1 2V2ZM7 10H1C0.734784 10 0.48043 10.1054 0.292893 10.2929C0.105357 10.4804 0 10.7348 0 11C0 11.2652 0.105357 11.5196 0.292893 11.7071C0.48043 11.8946 0.734784 12 1 12H7C7.26522 12 7.51957 11.8946 7.70711 11.7071C7.89464 11.5196 8 11.2652 8 11C8 10.7348 7.89464 10.4804 7.70711 10.2929C7.51957 10.1054 7.26522 10 7 10ZM9 5H1C0.734784 5 0.48043 5.10536 0.292893 5.29289C0.105357 5.48043 0 5.73478 0 6C0 6.26522 0.105357 6.51957 0.292893 6.70711C0.48043 6.89464 0.734784 7 1 7H9C9.26522 7 9.51957 6.89464 9.70711 6.70711C9.89464 6.51957 10 6.26522 10 6C10 5.73478 9.89464 5.48043 9.70711 5.29289C9.51957 5.10536 9.26522 5 9 5ZM15.71 5.29C15.617 5.19627 15.5064 5.12188 15.3846 5.07111C15.2627 5.02034 15.132 4.9942 15 4.9942C14.868 4.9942 14.7373 5.02034 14.6154 5.07111C14.4936 5.12188 14.383 5.19627 14.29 5.29L10.29 9.29C10.1017 9.4783 9.99591 9.7337 9.99591 10C9.99591 10.2663 10.1017 10.5217 10.29 10.71C10.4783 10.8983 10.7337 11.0041 11 11.0041C11.2663 11.0041 11.5217 10.8983 11.71 10.71L14 8.41V19C14 19.2652 14.1054 19.5196 14.2929 19.7071C14.4804 19.8946 14.7348 20 15 20C15.2652 20 15.5196 19.8946 15.7071 19.7071C15.8946 19.5196 16 19.2652 16 19V8.41L18.29 10.71C18.383 10.8037 18.4936 10.8781 18.6154 10.9289C18.7373 10.9797 18.868 11.0058 19 11.0058C19.132 11.0058 19.2627 10.9797 19.3846 10.9289C19.5064 10.8781 19.617 10.8037 19.71 10.71C19.8037 10.617 19.8781 10.5064 19.9289 10.3846C19.9797 10.2627 20.0058 10.132 20.0058 10C20.0058 9.86799 19.9797 9.73728 19.9289 9.61542C19.8781 9.49356 19.8037 9.38296 19.71 9.29L15.71 5.29Z" fill="white"/>
</svg>
